<?xml version="1.0" encoding="UTF-8" standalone="no"?>
<svg width="108px" height="51px" viewBox="0 0 108 51" version="1.1" xmlns="http://www.w3.org/2000/svg" xmlns:xlink="http://www.w3.org/1999/xlink" xmlns:sketch="http://www.bohemiancoding.com/sketch/ns">
    <!-- Generator: Sketch 3.1 (8751) - http://www.bohemiancoding.com/sketch -->
    <title>Artboard 1</title>
    <desc>Created with Sketch.</desc>
    <defs></defs>
    <g id="Page-1" stroke="none" stroke-width="1" fill="none" fill-rule="evenodd" sketch:type="MSPage">
        <g id="Artboard-1" sketch:type="MSArtboardGroup">
            <g id="landscape7" sketch:type="MSLayerGroup" transform="translate(21.000000, 0.000000)" fill="#F6A623">
                <g id="Group" sketch:type="MSShapeGroup">
                    <ellipse id="Oval" cx="8.69779121" cy="15.35325" rx="8.69779121" ry="8.60325"></ellipse>
                    <path d="M33.6424286,20.54925 C34.728989,20.54925 35.7435165,20.3085 36.6071538,19.89 C37.5253846,21.408 39.4831648,22.45725 41.7487912,22.45725 C43.8688352,22.45725 45.7174286,21.537 46.6993516,20.17575 C47.3954176,20.415 48.1627582,20.54925 48.968011,20.54925 C52.0646703,20.54925 54.582033,18.59175 54.6639231,16.15275 C54.4167363,16.179 54.1634835,16.1925 53.907956,16.1925 C51.6415714,16.1925 49.6853077,15.144 48.7663187,13.626 C47.9019231,14.04525 46.8873956,14.28525 45.8023516,14.28525 C42.6548901,14.28525 40.1026484,12.2625 40.1026484,9.7665 C40.1026484,9.2745 40.2034945,8.799 40.3877473,8.35425 C38.0652527,8.631 36.2014945,10.0185 35.6858901,11.814 C35.052,11.619 34.3635165,11.51325 33.6424286,11.51325 C30.4957253,11.51325 27.9427253,13.53525 27.9427253,16.03125 C27.9434835,18.52575 30.4957253,20.54925 33.6424286,20.54925 L33.6424286,20.54925 Z" id="Shape"></path>
                    <path d="M47.7897033,12.3915 C48.8755055,12.3915 49.890033,12.15075 50.7529121,11.733 C51.6726593,13.251 53.6289231,14.2995 55.8945495,14.2995 C58.0153516,14.2995 59.8639451,13.38075 60.8451099,12.01875 C61.5411758,12.258 62.3085165,12.3915 63.1137692,12.3915 C66.261989,12.3915 68.8142308,10.3695 68.8142308,7.87425 C68.8142308,5.379 66.2627473,3.35625 63.1137692,3.35625 C62.3494615,3.35625 61.6207912,3.47625 60.9542967,3.69225 C60.3954725,1.66275 58.1154396,0.14325 55.3872857,0.14325 C52.6758132,0.14325 50.4079121,1.64475 49.8308901,3.657 C49.197,3.4635 48.5085165,3.357 47.7889451,3.357 C44.6407253,3.357 42.0884835,5.37975 42.0884835,7.875 C42.0884835,10.37025 44.6414835,12.3915 47.7897033,12.3915 L47.7897033,12.3915 Z" id="Shape"></path>
                </g>
            </g>
            <text id="imagery" sketch:type="MSTextLayer" font-family="Gotham" font-size="28" font-weight="313">
                <tspan x="-3" y="46" fill="#313131">i</tspan>
                <tspan x="4.364" y="46" fill="#414141">m</tspan>
                <tspan x="30.992" y="46" fill="#525252">a</tspan>
                <tspan x="47.204" y="46" fill="#656565">g</tspan>
                <tspan x="65.796" y="46" fill="#787878">e</tspan>
                <tspan x="82.372" y="46" fill="#8B8B8B">r</tspan>
                <tspan x="93.712" y="46" fill="#9D9D9D">y</tspan>
            </text>
        </g>
    </g>
</svg>